<svg xmlns="http://www.w3.org/2000/svg" xmlns:xlink="http://www.w3.org/1999/xlink" contentStyleType="text/css" data-diagram-type="DESCRIPTION" height="464px" preserveAspectRatio="none" style="width:1483px;height:464px;" version="1.1" viewBox="0 0 1483 464" width="1483px" zoomAndPan="magnify"><?plantuml 1.2026.6?><defs/><g><g class="title" data-source-line="1"><text fill="#000000" font-family="sans-serif" font-size="14" font-weight="700" lengthAdjust="spacing" textLength="580.5967" x="447.7223" y="22.9951">Lexicon Learning Analytics &amp; AI Feedback Platform - System Architecture</text></g><!--cluster Web Hosting--><g class="cluster" data-qualified-name="Web Hosting" data-source-line="12" id="ent0005"><polygon fill="none" points="298.52,245.9969,308.52,235.9969,486.2,235.9969,486.2,333.9969,476.2,343.9969,298.52,343.9969,298.52,245.9969" style="stroke:#181818;stroke-width:1;stroke-linejoin:miter;stroke-miterlimit:10;"/><line style="stroke:#181818;stroke-width:1;" x1="476.2" x2="486.2" y1="245.9969" y2="235.9969"/><line style="stroke:#181818;stroke-width:1;" x1="298.52" x2="476.2" y1="245.9969" y2="245.9969"/><line style="stroke:#181818;stroke-width:1;" x1="476.2" x2="476.2" y1="245.9969" y2="343.9969"/><text fill="#000000" font-family="sans-serif" font-size="14" font-weight="700" lengthAdjust="spacing" textLength="100.9805" x="337.8698" y="261.992">Web Hosting</text></g><!--cluster Application Hosting--><g class="cluster" data-qualified-name="Application Hosting" data-source-line="16" id="ent0007"><polygon fill="none" points="644.2,124.9969,654.2,114.9969,1115.81,114.9969,1115.81,425.9969,1105.81,435.9969,644.2,435.9969,644.2,124.9969" style="stroke:#181818;stroke-width:1;stroke-linejoin:miter;stroke-miterlimit:10;"/><line style="stroke:#181818;stroke-width:1;" x1="1105.81" x2="1115.81" y1="124.9969" y2="114.9969"/><line style="stroke:#181818;stroke-width:1;" x1="644.2" x2="1105.81" y1="124.9969" y2="124.9969"/><line style="stroke:#181818;stroke-width:1;" x1="1105.81" x2="1105.81" y1="124.9969" y2="435.9969"/><text fill="#000000" font-family="sans-serif" font-size="14" font-weight="700" lengthAdjust="spacing" textLength="155.3193" x="798.3453" y="140.992">Application Hosting</text></g><!--entity Web--><g class="entity" data-qualified-name="Web Hosting.Web" data-source-line="13" id="ent0006"><rect fill="#F1F1F1" height="52.5938" rx="2.5" ry="2.5" style="stroke:#181818;stroke-width:0.5;" width="155.6797" x="314.52" y="275.6969"/><text fill="#000000" font-family="sans-serif" font-size="14" lengthAdjust="spacing" textLength="135.6797" x="324.52" y="298.692">React + TypeScript</text><text fill="#000000" font-family="sans-serif" font-size="14" lengthAdjust="spacing" textLength="114.0166" x="324.52" y="314.9889">Web Application</text></g><!--entity API--><g class="entity" data-qualified-name="Application Hosting.API" data-source-line="17" id="ent0008"><rect fill="#F1F1F1" height="52.5938" rx="2.5" ry="2.5" style="stroke:#181818;stroke-width:0.5;" width="147.7773" x="660.2" y="275.6969"/><text fill="#000000" font-family="sans-serif" font-size="14" lengthAdjust="spacing" textLength="127.7773" x="670.2" y="298.692">Node.js + Express</text><text fill="#000000" font-family="sans-serif" font-size="14" lengthAdjust="spacing" textLength="62.6104" x="670.2" y="314.9889">REST API</text></g><!--entity Auth--><g class="entity" data-qualified-name="Application Hosting.Auth" data-source-line="18" id="ent0009"><rect fill="#F1F1F1" height="52.5938" rx="2.5" ry="2.5" style="stroke:#181818;stroke-width:0.5;" width="214.9268" x="884.89" y="296.6969"/><text fill="#000000" font-family="sans-serif" font-size="14" lengthAdjust="spacing" textLength="118.1387" x="894.89" y="319.692">Authentication &amp;</text><text fill="#000000" font-family="sans-serif" font-size="14" lengthAdjust="spacing" textLength="194.9268" x="894.89" y="335.9889">Authorisation (JWT + RBAC)</text></g><!--entity Analytics--><g class="entity" data-qualified-name="Application Hosting.Analytics" data-source-line="19" id="ent0010"><rect fill="#F1F1F1" height="36.2969" rx="2.5" ry="2.5" style="stroke:#181818;stroke-width:0.5;" width="149.2949" x="917.7" y="154.8469"/><text fill="#000000" font-family="sans-serif" font-size="14" lengthAdjust="spacing" textLength="129.2949" x="927.7" y="177.842">Learning Analytics</text></g><!--entity FeedbackAI--><g class="entity" data-qualified-name="Application Hosting.FeedbackAI" data-source-line="20" id="ent0011"><rect fill="#F1F1F1" height="36.2969" rx="2.5" ry="2.5" style="stroke:#181818;stroke-width:0.5;" width="198.9307" x="892.89" y="383.8469"/><text fill="#000000" font-family="sans-serif" font-size="14" lengthAdjust="spacing" textLength="178.9307" x="902.89" y="406.842">AI Feedback Orchestrator</text></g><!--entity Reports--><g class="entity" data-qualified-name="Application Hosting.Reports" data-source-line="21" id="ent0012"><rect fill="#F1F1F1" height="36.2969" rx="2.5" ry="2.5" style="stroke:#181818;stroke-width:0.5;" width="174.3076" x="905.2" y="225.8469"/><text fill="#000000" font-family="sans-serif" font-size="14" lengthAdjust="spacing" textLength="154.3076" x="915.2" y="248.842">PDF Report Generator</text></g><!--entity Student--><g class="entity" data-qualified-name="Student" data-source-line="7" id="ent0001"><ellipse cx="34.3457" cy="161.3469" fill="#F1F1F1" rx="8" ry="8" style="stroke:#181818;stroke-width:0.5;"/><path d="M34.3457,169.3469 L34.3457,196.3469 M21.3457,177.3469 L47.3457,177.3469 M34.3457,196.3469 L21.3457,211.3469 M34.3457,196.3469 L47.3457,211.3469" fill="none" style="stroke:#181818;stroke-width:0.5;"/><text fill="#000000" font-family="sans-serif" font-size="14" lengthAdjust="spacing" textLength="55.1113" x="6.79" y="225.842">Student</text></g><!--entity Teacher--><g class="entity" data-qualified-name="Teacher" data-source-line="8" id="ent0002"><ellipse cx="34.3418" cy="272.3469" fill="#F1F1F1" rx="8" ry="8" style="stroke:#181818;stroke-width:0.5;"/><path d="M34.3418,280.3469 L34.3418,307.3469 M21.3418,288.3469 L47.3418,288.3469 M34.3418,307.3469 L21.3418,322.3469 M34.3418,307.3469 L47.3418,322.3469" fill="none" style="stroke:#181818;stroke-width:0.5;"/><text fill="#000000" font-family="sans-serif" font-size="14" lengthAdjust="spacing" textLength="56.6836" x="6" y="336.842">Teacher</text></g><!--entity Admin--><g class="entity" data-qualified-name="Admin" data-source-line="9" id="ent0003"><ellipse cx="34.3421" cy="383.3469" fill="#F1F1F1" rx="8" ry="8" style="stroke:#181818;stroke-width:0.5;"/><path d="M34.3421,391.3469 L34.3421,418.3469 M21.3421,399.3469 L47.3421,399.3469 M34.3421,418.3469 L21.3421,433.3469 M34.3421,418.3469 L47.3421,433.3469" fill="none" style="stroke:#181818;stroke-width:0.5;"/><text fill="#000000" font-family="sans-serif" font-size="14" lengthAdjust="spacing" textLength="44.8643" x="11.91" y="447.842">Admin</text></g><!--entity Internet--><g class="entity" data-qualified-name="Internet" data-source-line="10" id="ent0004"><path d="M133.4518,287.7275 C136.5475,282.6934 140.4761,282.4283 144.2835,286.9181 C147.3915,280.7462 151.7358,280.8469 155.9775,285.7176 C158.8935,280.395 163.1613,279.9176 166.7413,285.0329 C170.4898,280.1085 174.3467,279.0078 178.334,284.7739 C183.3772,279.5105 187.6082,279.6592 190.4507,286.9055 C194.5083,281.738 199.1661,282.0125 202.8525,287.344 C210.1904,290.1834 211.9277,297.5395 205.6129,302.8149 C211.4175,309.2165 211.263,314.3002 203.267,318.6584 C201.3128,324.819 195.779,325.2271 192.0302,320.5127 C189.0904,328.786 184.6231,329.828 178.4992,323.4543 C177.5668,329.1705 172.8734,331.3534 167.9854,328.081 C163.3873,332.2792 158.1043,331.7393 156.1421,325.1792 C149.6223,330.0147 146.3972,327.3806 144.1899,320.7024 C139.9816,325.158 134.9143,324.6896 132.2427,318.9089 C122.5847,317.9362 119.3638,310.7127 125.9599,303.2277 C119.8429,294.2454 122.9357,288.6704 133.4518,287.7275" fill="#F1F1F1" style="stroke:#181818;stroke-width:0.5;"/><text fill="#000000" font-family="sans-serif" font-size="14" lengthAdjust="spacing" textLength="55.8359" x="138.68" y="306.842">Internet</text></g><!--entity DB--><g class="entity" data-qualified-name="DB" data-source-line="24" id="ent0013"><path d="M1318.72,252.3469 C1318.72,242.3469 1388.3806,242.3469 1388.3806,242.3469 C1388.3806,242.3469 1458.0413,242.3469 1458.0413,252.3469 L1458.0413,277.6437 C1458.0413,287.6437 1388.3806,287.6437 1388.3806,287.6437 C1388.3806,287.6437 1318.72,287.6437 1318.72,277.6437 L1318.72,252.3469" fill="#F1F1F1" style="stroke:#181818;stroke-width:0.5;"/><path d="M1318.72,252.3469 C1318.72,262.3469 1388.3806,262.3469 1388.3806,262.3469 C1388.3806,262.3469 1458.0413,262.3469 1458.0413,252.3469" fill="none" style="stroke:#181818;stroke-width:0.5;"/><text fill="#000000" font-family="sans-serif" font-size="14" lengthAdjust="spacing" textLength="119.3213" x="1328.72" y="279.342">MySQL Database</text></g><!--entity OpenAI--><g class="entity" data-qualified-name="OpenAI" data-source-line="25" id="ent0014"><path d="M1344.2738,398.9996 C1346.6177,393.7503 1351.2866,392.0362 1355.6402,396.6938 C1359.6797,391.7985 1363.0563,391.8054 1366.4009,397.4063 C1369.0959,391.1329 1372.4623,389.8308 1377.6635,394.9227 C1380.6934,389.6656 1384.9428,389.626 1388.5404,394.3011 C1393.0012,388.5144 1398.8896,389.3116 1401.939,395.837 C1404.8066,391.38 1408.9442,391.4238 1411.9441,395.685 C1415.6543,389.7321 1420.9974,391.2571 1423.6324,396.7801 C1427.6991,392.757 1431.7974,392.0275 1434.5359,398.2004 C1442.0484,401.036 1442.5801,406.3972 1437.8662,412.1514 C1445.4939,418.6431 1443.3439,424.51 1435.0714,428.2397 C1431.871,433.1182 1428.1795,433.1141 1424.5612,428.713 C1421.4038,434.3859 1417.5981,435.4319 1412.7795,430.5709 C1410.1794,437.3856 1405.684,436.5109 1401.3129,432.4356 C1398.6441,437.8489 1394.541,438.9581 1390.2163,434.2512 C1386.8177,440.3804 1381.4533,439.2698 1378.4564,433.8425 C1373.2716,438.6688 1368.4,437.9139 1366.2227,430.769 C1362.7266,435.7609 1359.3794,434.9463 1355.962,430.6818 C1351.0488,434.622 1346.3351,434.1609 1344.4593,427.4129 C1335.6977,425.9793 1334.2091,419.3165 1338.8567,412.7569 C1334.927,406.5854 1335.4468,400.148 1344.2738,398.9996" fill="#F1F1F1" style="stroke:#181818;stroke-width:0.5;"/><text fill="#000000" font-family="sans-serif" font-size="14" lengthAdjust="spacing" textLength="77.6973" x="1349.54" y="416.842">OpenAI API</text></g><g class="entity" data-qualified-name="GMN29" data-source-line="45" id="ent0030"><path d="M868.98,43.2969 L868.98,98.6953 L1115.728,98.6953 L1115.728,53.2969 L1105.728,43.2969 L868.98,43.2969" fill="#FEFFDD" style="stroke:#181818;stroke-width:0.5;"/><path d="M1105.728,43.2969 L1105.728,53.2969 L1115.728,53.2969 L1105.728,43.2969" fill="#FEFFDD" style="stroke:#181818;stroke-width:1;"/><text fill="#000000" font-family="sans-serif" font-size="13" lengthAdjust="spacing" textLength="225.748" x="874.98" y="60.3638">AI feedback is a draft (see FR-6.5).</text><text fill="#000000" font-family="sans-serif" font-size="13" lengthAdjust="spacing" textLength="216.7979" x="874.98" y="75.4966">Only Teacher-approved feedback</text><text fill="#000000" font-family="sans-serif" font-size="13" lengthAdjust="spacing" textLength="139.4644" x="874.98" y="90.6294">is visible to Students.</text></g><!--link Student to Internet--><g class="link" data-entity-1="ent0001" data-entity-2="ent0004" data-link-type="dependency" data-source-line="27" id="lnk15"><path d="M62.33,213.9969 C84.54,232.9169 112.0743,256.3839 134.3943,275.4039" fill="none" id="Student-to-Internet" style="stroke:#181818;stroke-width:1;"/><polygon fill="#181818" points="138.2,278.6469,133.9442,269.765,134.3943,275.4039,128.7554,275.854,138.2,278.6469" style="stroke:#181818;stroke-width:1;stroke-linejoin:miter;stroke-miterlimit:10;"/></g><!--link Teacher to Internet--><g class="link" data-entity-1="ent0002" data-entity-2="ent0004" data-link-type="dependency" data-source-line="28" id="lnk16"><path d="M62.97,301.9969 C80.52,301.9969 98.58,301.9969 118.39,301.9969" fill="none" id="Teacher-to-Internet" style="stroke:#181818;stroke-width:1;"/><polygon fill="#181818" points="123.39,301.9969,114.39,297.9969,118.39,301.9969,114.39,305.9969,123.39,301.9969" style="stroke:#181818;stroke-width:1;stroke-linejoin:miter;stroke-miterlimit:10;"/></g><!--link Admin to Internet--><g class="link" data-entity-1="ent0003" data-entity-2="ent0004" data-link-type="dependency" data-source-line="29" id="lnk17"><path d="M57.14,394.4169 C79.45,375.4069 110.3648,349.0704 134.4848,328.5104" fill="none" id="Admin-to-Internet" style="stroke:#181818;stroke-width:1;"/><polygon fill="#181818" points="138.29,325.2669,128.8458,328.0611,134.4848,328.5104,134.0355,334.1494,138.29,325.2669" style="stroke:#181818;stroke-width:1;stroke-linejoin:miter;stroke-miterlimit:10;"/></g><!--link Internet to Web--><g class="link" data-entity-1="ent0004" data-entity-2="ent0006" data-link-type="dependency" data-source-line="30" id="lnk18"><path d="M209.95,301.9969 C239.35,301.9969 274.35,301.9969 309.31,301.9969" fill="none" id="Internet-to-Web" style="stroke:#181818;stroke-width:1;"/><polygon fill="#181818" points="314.31,301.9969,305.31,297.9969,309.31,301.9969,305.31,305.9969,314.31,301.9969" style="stroke:#181818;stroke-width:1;stroke-linejoin:miter;stroke-miterlimit:10;"/><text fill="#000000" font-family="sans-serif" font-size="13" lengthAdjust="spacing" textLength="41.7485" x="240.52" y="298.0638">HTTPS</text></g><!--link Web to API--><g class="link" data-entity-1="ent0006" data-entity-2="ent0008" data-link-type="dependency" data-source-line="31" id="lnk19"><path d="M470.45,301.9969 C527.22,301.9969 598.94,301.9969 654.8,301.9969" fill="none" id="Web-to-API" style="stroke:#181818;stroke-width:1;"/><polygon fill="#181818" points="659.8,301.9969,650.8,297.9969,654.8,301.9969,650.8,305.9969,659.8,301.9969" style="stroke:#181818;stroke-width:1;stroke-linejoin:miter;stroke-miterlimit:10;"/><text fill="#000000" font-family="sans-serif" font-size="13" lengthAdjust="spacing" textLength="124.0078" x="503.2" y="298.0638">HTTPS / JSON REST</text></g><!--link API to Auth--><g class="link" data-entity-1="ent0008" data-entity-2="ent0009" data-link-type="dependency" data-source-line="33" id="lnk20"><path d="M808.18,307.9869 C832,309.9369 853.9667,311.7387 879.7267,313.8487" fill="none" id="API-to-Auth" style="stroke:#181818;stroke-width:1;"/><polygon fill="#181818" points="884.71,314.2569,876.0666,309.5355,879.7267,313.8487,875.4135,317.5088,884.71,314.2569" style="stroke:#181818;stroke-width:1;stroke-linejoin:miter;stroke-miterlimit:10;"/></g><!--link API to Analytics--><g class="link" data-entity-1="ent0008" data-entity-2="ent0010" data-link-type="dependency" data-source-line="34" id="lnk21"><path d="M766.48,275.3769 C792.48,254.4969 831.17,226.0469 868.98,207.9969 C884.13,200.7669 896.2901,196.1712 912.6201,191.2812" fill="none" id="API-to-Analytics" style="stroke:#181818;stroke-width:1;"/><polygon fill="#181818" points="917.41,189.8469,907.6408,188.5968,912.6201,191.2812,909.9357,196.2605,917.41,189.8469" style="stroke:#181818;stroke-width:1;stroke-linejoin:miter;stroke-miterlimit:10;"/></g><!--link API to FeedbackAI--><g class="link" data-entity-1="ent0008" data-entity-2="ent0011" data-link-type="dependency" data-source-line="35" id="lnk22"><path d="M784.72,328.6469 C809.57,341.3169 840.38,356.0569 868.98,366.9969 C884.77,373.0369 897.2513,377.1825 913.7213,382.0025" fill="none" id="API-to-FeedbackAI" style="stroke:#181818;stroke-width:1;"/><polygon fill="#181818" points="918.52,383.4069,911.0058,377.04,913.7213,382.0025,908.7588,384.718,918.52,383.4069" style="stroke:#181818;stroke-width:1;stroke-linejoin:miter;stroke-miterlimit:10;"/></g><!--link API to Reports--><g class="link" data-entity-1="ent0008" data-entity-2="ent0012" data-link-type="dependency" data-source-line="36" id="lnk23"><path d="M808.18,285.4569 C839.69,278.3269 871.8031,271.0493 904.2731,263.7093" fill="none" id="API-to-Reports" style="stroke:#181818;stroke-width:1;"/><polygon fill="#181818" points="909.15,262.6069,899.4895,260.6897,904.2731,263.7093,901.2535,268.4929,909.15,262.6069" style="stroke:#181818;stroke-width:1;stroke-linejoin:miter;stroke-miterlimit:10;"/></g><!--link Auth to DB--><g class="link" data-entity-1="ent0009" data-entity-2="ent0013" data-link-type="dependency" data-source-line="38" id="lnk24"><path d="M1100.24,307.2669 C1169.64,297.0469 1253.1033,284.7649 1313.3733,275.8949" fill="none" id="Auth-to-DB" style="stroke:#181818;stroke-width:1;"/><polygon fill="#181818" points="1318.32,275.1669,1308.8335,272.5199,1313.3733,275.8949,1309.9983,280.4347,1318.32,275.1669" style="stroke:#181818;stroke-width:1;stroke-linejoin:miter;stroke-miterlimit:10;"/></g><!--link Analytics to DB--><g class="link" data-entity-1="ent0010" data-entity-2="ent0013" data-link-type="dependency" data-source-line="39" id="lnk25"><path d="M1067.49,184.1269 C1127.66,193.9269 1214.4,209.7669 1288.72,229.9969 C1301.18,233.3869 1309.5827,235.9581 1322.0627,240.2581" fill="none" id="Analytics-to-DB" style="stroke:#181818;stroke-width:1;"/><polygon fill="#181818" points="1326.79,241.8869,1319.5839,235.1732,1322.0627,240.2581,1316.9779,242.7369,1326.79,241.8869" style="stroke:#181818;stroke-width:1;stroke-linejoin:miter;stroke-miterlimit:10;"/></g><!--link FeedbackAI to DB--><g class="link" data-entity-1="ent0011" data-entity-2="ent0013" data-link-type="dependency" data-source-line="40" id="lnk26"><path d="M1092.27,385.6069 C1163.96,372.8569 1254.12,354.7369 1288.72,338.9969 C1316.6,326.3169 1340.3559,308.0194 1359.2259,291.4194" fill="none" id="FeedbackAI-to-DB" style="stroke:#181818;stroke-width:1;"/><polygon fill="#181818" points="1362.98,288.1169,1353.5806,291.0581,1359.2259,291.4194,1358.8646,297.0647,1362.98,288.1169" style="stroke:#181818;stroke-width:1;stroke-linejoin:miter;stroke-miterlimit:10;"/><text fill="#000000" font-family="sans-serif" font-size="13" lengthAdjust="spacing" textLength="113.6104" x="1160.867" y="320.0638">read learner data</text><text fill="#000000" font-family="sans-serif" font-size="13" lengthAdjust="spacing" textLength="131.9043" x="1151.72" y="335.1966">write feedback draft</text></g><!--link Reports to DB--><g class="link" data-entity-1="ent0012" data-entity-2="ent0013" data-link-type="dependency" data-source-line="41" id="lnk27"><path d="M1079.82,248.6069 C1151.52,252.4269 1247.1171,257.5205 1313.4771,261.0605" fill="none" id="Reports-to-DB" style="stroke:#181818;stroke-width:1;"/><polygon fill="#181818" points="1318.47,261.3269,1309.6959,256.8531,1313.4771,261.0605,1309.2697,264.8418,1318.47,261.3269" style="stroke:#181818;stroke-width:1;stroke-linejoin:miter;stroke-miterlimit:10;"/></g><!--link FeedbackAI to OpenAI--><g class="link" data-entity-1="ent0011" data-entity-2="ent0014" data-link-type="dependency" data-source-line="42" id="lnk28"><path d="M1092.04,411.6469 C1109.89,413.0469 1128.35,414.2569 1145.72,414.9969 C1209.22,417.6969 1225.18,415.9669 1288.72,414.9969 C1303.46,414.7769 1314.4322,414.5064 1329.1422,414.0664" fill="none" id="FeedbackAI-to-OpenAI" style="stroke:#181818;stroke-width:1;"/><polygon fill="#181818" points="1334.14,413.9169,1325.0244,410.1877,1329.1422,414.0664,1325.2636,418.1842,1334.14,413.9169" style="stroke:#181818;stroke-width:1;stroke-linejoin:miter;stroke-miterlimit:10;"/><text fill="#000000" font-family="sans-serif" font-size="13" lengthAdjust="spacing" textLength="141.1909" x="1146.72" y="396.0638">relevant student data</text><text fill="#000000" font-family="sans-serif" font-size="13" lengthAdjust="spacing" textLength="133.4722" x="1150.5794" y="411.1966">(AI analysis request)</text></g><!--link FeedbackAI to GMN29--><g class="link" data-entity-1="ent0011" data-entity-2="ent0030" data-link-type="association" data-source-line="45" id="lnk31"><path d="M892.6,390.2469 C870.52,382.4169 850.22,369.7669 838.48,349.4969 C816.98,312.3869 816.98,193.6069 838.48,156.4969 C853.41,130.7069 879.29,112.1669 905.61,99.0869" fill="none" id="FeedbackAI-GMN29" style="stroke:#181818;stroke-width:1;stroke-dasharray:7,7;"/></g><?plantuml-src TLHDRzim3BthLn0v50c6fAVjiCC0jsdM55sJnGPwoKMnc4IjBNaIdTKOzjz7sLO-ElHayP5yfDwBGfeAX4Tyqxar_9NEQBE3nCYY8Prxk89a3ZD4jP7vAomBILlhIXX3sdZ24XANxpLXJhL38GhS4f05ftTx0gKT9xGrmhzgKqadIyXjMLc3Xb9gU78ea6PNu5b9cBHpjZRgrXRM0JbfFAUuIGYP4qCfrIg4NPIXpFVe-YXHfJOYBsojO6u8dK7kCrOX39vn0_VM4zzn07y4dDQ1mOfP23v1rbIOvavNj3QXFgcgGkSot6C0qWDZucyaF4j-IFp4bPCNpzHtRvL3xzTcTPTca2pdBI5_BnkIclPyYBnNQnCGwxJlWE73SyPigvlaTjGnSFgIudydky8OlHjuPl623KNFchEMRK_C9E-sN4vdiCBAEeBlQF3Kq84-YAGaoOtqBDIF9ltv2DC-RkkcDxrBWqM5XdU8WdIX4BtBC1v_EpdPctq9jfvVGl7Gei77ht2VPSjKX7F0U5h4u1eUqiKJ15k428cs8AXw38xAHUHCbmZ5culGsY9ynzDRwe5JOu_m6WwbWYAOnbSBggtDRyVl2hRH5-NabaG_uGEgNiT0L-11idI-bx2Z779IXdMyzbppgsQZH-6dp8CsbiYMOBUNXdF7SGLkajqUCFI8C5kDlqm-ZoPSjZ154z_XM5QLimTKnqukuDw3zdh3Rvx_7tfd_KIWKH3cYty0?></g></svg>