<svg xmlns="http://www.w3.org/2000/svg" xmlns:xlink="http://www.w3.org/1999/xlink" contentStyleType="text/css" data-diagram-type="DESCRIPTION" height="1176px" preserveAspectRatio="none" style="width:539px;height:1176px;" version="1.1" viewBox="0 0 539 1176" width="539px" zoomAndPan="magnify"><?plantuml 1.2026.6?><defs/><g><g class="title" data-source-line="1"><text fill="#000000" font-family="sans-serif" font-size="14" font-weight="700" lengthAdjust="spacing" textLength="292.2842" x="120.1979" y="22.9951">Lexicon Platform - Use Case Diagram</text></g><!--cluster Lexicon Learning Analytics & AI Feedback Platform--><g class="cluster" data-qualified-name="Lexicon Learning Analytics . AI Feedback Platform" data-source-line="11" id="ent0004"><rect fill="none" height="1118" rx="2.5" ry="2.5" style="stroke:#181818;stroke-width:1;" width="419" x="106.68" y="44.2969"/><text fill="#000000" font-family="sans-serif" font-size="14" font-weight="700" lengthAdjust="spacing" textLength="403.498" x="114.431" y="59.292">Lexicon Learning Analytics &amp; AI Feedback Platform</text></g><!--entity UC1--><g class="entity" data-qualified-name="Lexicon Learning Analytics . AI Feedback Platform.UC1" data-source-line="12" id="ent0005"><ellipse cx="315.6846" cy="577.3018" fill="#F1F1F1" rx="63.7246" ry="15.1449" style="stroke:#181818;stroke-width:0.5;"/><text fill="#000000" font-family="sans-serif" font-size="14" lengthAdjust="spacing" textLength="90.0566" x="270.6563" y="581.9502">Authenticate</text></g><!--entity UC2--><g class="entity" data-qualified-name="Lexicon Learning Analytics . AI Feedback Platform.UC2" data-source-line="13" id="ent0006"><ellipse cx="315.6794" cy="1121.2984" fill="#F1F1F1" rx="88.6994" ry="25.1315" style="stroke:#181818;stroke-width:0.5;"/><text fill="#000000" font-family="sans-serif" font-size="14" lengthAdjust="spacing" textLength="103.7148" x="263.822" y="1116.4754">Manage Users,</text><text fill="#000000" font-family="sans-serif" font-size="14" lengthAdjust="spacing" textLength="126.2119" x="252.5734" y="1132.7723">Courses &amp; Groups</text></g><!--entity UC3--><g class="entity" data-qualified-name="Lexicon Learning Analytics . AI Feedback Platform.UC3" data-source-line="14" id="ent0007"><ellipse cx="315.6778" cy="1037.2971" fill="#F1F1F1" rx="79.5078" ry="24.0703" style="stroke:#181818;stroke-width:0.5;"/><text fill="#000000" font-family="sans-serif" font-size="14" lengthAdjust="spacing" textLength="118.3506" x="256.5026" y="1036.7386">Register / Import</text><text fill="#000000" font-family="sans-serif" font-size="14" lengthAdjust="spacing" textLength="62.4053" x="284.4752" y="1053.0354">Students</text></g><!--entity UC4--><g class="entity" data-qualified-name="Lexicon Learning Analytics . AI Feedback Platform.UC4" data-source-line="15" id="ent0008"><ellipse cx="315.6808" cy="811.293" fill="#F1F1F1" rx="81.5808" ry="18.7162" style="stroke:#181818;stroke-width:0.5;"/><text fill="#000000" font-family="sans-serif" font-size="14" lengthAdjust="spacing" textLength="134.3877" x="248.4869" y="815.9415">Record Attendance</text></g><!--entity UC5--><g class="entity" data-qualified-name="Lexicon Learning Analytics . AI Feedback Platform.UC5" data-source-line="16" id="ent0009"><ellipse cx="315.6766" cy="502.2997" fill="#F1F1F1" rx="108.5466" ry="25.0828" style="stroke:#181818;stroke-width:0.5;"/><text fill="#000000" font-family="sans-serif" font-size="14" lengthAdjust="spacing" textLength="155.7842" x="237.7845" y="500.1948">Manage Assessments,</text><text fill="#000000" font-family="sans-serif" font-size="14" lengthAdjust="spacing" textLength="126.3281" x="252.5125" y="516.4917">Quizzes &amp; Rubrics</text></g><!--entity UC6--><g class="entity" data-qualified-name="Lexicon Learning Analytics . AI Feedback Platform.UC6" data-source-line="17" id="ent0010"><ellipse cx="315.6806" cy="649.297" fill="#F1F1F1" rx="98.9506" ry="22.1901" style="stroke:#181818;stroke-width:0.5;"/><text fill="#000000" font-family="sans-serif" font-size="14" lengthAdjust="spacing" textLength="173.7422" x="228.8095" y="653.9454">View Student Dashboard</text></g><!--entity UC7--><g class="entity" data-qualified-name="Lexicon Learning Analytics . AI Feedback Platform.UC7" data-source-line="18" id="ent0011"><ellipse cx="315.6756" cy="251.296" fill="#F1F1F1" rx="99.4956" ry="22.2991" style="stroke:#181818;stroke-width:0.5;"/><text fill="#000000" font-family="sans-serif" font-size="14" lengthAdjust="spacing" textLength="174.9453" x="228.2029" y="255.9444">View Competency Matrix</text></g><!--entity UC8--><g class="entity" data-qualified-name="Lexicon Learning Analytics . AI Feedback Platform.UC8" data-source-line="19" id="ent0012"><ellipse cx="315.6841" cy="958.2937" fill="#F1F1F1" rx="87.8841" ry="19.9768" style="stroke:#181818;stroke-width:0.5;"/><text fill="#000000" font-family="sans-serif" font-size="14" lengthAdjust="spacing" textLength="148.9346" x="241.2168" y="962.9421">View Group Analytics</text></g><!--entity UC9--><g class="entity" data-qualified-name="Lexicon Learning Analytics . AI Feedback Platform.UC9" data-source-line="20" id="ent0013"><ellipse cx="315.6828" cy="417.2953" fill="#F1F1F1" rx="75.3028" ry="24.9384" style="stroke:#181818;stroke-width:0.5;"/><text fill="#000000" font-family="sans-serif" font-size="14" lengthAdjust="spacing" textLength="83.542" x="273.9119" y="412.1853">Generate AI</text><text fill="#000000" font-family="sans-serif" font-size="14" lengthAdjust="spacing" textLength="107.4199" x="261.9729" y="428.4822">Feedback Draft</text></g><!--entity UC10--><g class="entity" data-qualified-name="Lexicon Learning Analytics . AI Feedback Platform.UC10" data-source-line="21" id="ent0014"><ellipse cx="315.6846" cy="333.2927" fill="#F1F1F1" rx="88.0546" ry="24.4958" style="stroke:#181818;stroke-width:0.5;"/><text fill="#000000" font-family="sans-serif" font-size="14" lengthAdjust="spacing" textLength="128.9668" x="251.2012" y="332.0724">Review &amp; Approve</text><text fill="#000000" font-family="sans-serif" font-size="14" lengthAdjust="spacing" textLength="85.5928" x="272.8882" y="348.3692">AI Feedback</text></g><!--entity UC11--><g class="entity" data-qualified-name="Lexicon Learning Analytics . AI Feedback Platform.UC11" data-source-line="22" id="ent0015"><ellipse cx="315.6751" cy="171.2919" fill="#F1F1F1" rx="100.5751" ry="22.515" style="stroke:#181818;stroke-width:0.5;"/><text fill="#000000" font-family="sans-serif" font-size="14" lengthAdjust="spacing" textLength="177.3242" x="227.013" y="175.9403">View Approved Feedback</text></g><!--entity UC12--><g class="entity" data-qualified-name="Lexicon Learning Analytics . AI Feedback Platform.UC12" data-source-line="23" id="ent0016"><ellipse cx="315.6816" cy="732.297" fill="#F1F1F1" rx="79.8316" ry="25.3401" style="stroke:#181818;stroke-width:0.5;"/><text fill="#000000" font-family="sans-serif" font-size="14" lengthAdjust="spacing" textLength="97.1113" x="267.1259" y="727.7805">Generate PDF</text><text fill="#000000" font-family="sans-serif" font-size="14" lengthAdjust="spacing" textLength="112.0957" x="259.6337" y="744.0774">Progress Report</text></g><!--entity UC13--><g class="entity" data-qualified-name="Lexicon Learning Analytics . AI Feedback Platform.UC13" data-source-line="24" id="ent0017"><ellipse cx="315.6759" cy="884.292" fill="#F1F1F1" rx="84.0259" ry="19.2052" style="stroke:#181818;stroke-width:0.5;"/><text fill="#000000" font-family="sans-serif" font-size="14" lengthAdjust="spacing" textLength="140.0752" x="245.6383" y="888.9405">Manage Certificates</text></g><!--entity UC14--><g class="entity" data-qualified-name="Lexicon Learning Analytics . AI Feedback Platform.UC14" data-source-line="25" id="ent0018"><ellipse cx="315.6782" cy="96.2965" fill="#F1F1F1" rx="74.6982" ry="17.3396" style="stroke:#181818;stroke-width:0.5;"/><text fill="#000000" font-family="sans-serif" font-size="14" lengthAdjust="spacing" textLength="117.9951" x="256.6807" y="100.945">View Certificates</text></g><!--entity Student--><g class="entity" data-qualified-name="Student" data-source-line="7" id="ent0001"><ellipse cx="34.3457" cy="221.6469" fill="#F1F1F1" rx="8" ry="8" style="stroke:#181818;stroke-width:0.5;"/><path d="M34.3457,229.6469 L34.3457,256.6469 M21.3457,237.6469 L47.3457,237.6469 M34.3457,256.6469 L21.3457,271.6469 M34.3457,256.6469 L47.3457,271.6469" fill="none" style="stroke:#181818;stroke-width:0.5;"/><text fill="#000000" font-family="sans-serif" font-size="14" lengthAdjust="spacing" textLength="55.1113" x="6.79" y="286.142">Student</text></g><!--entity Teacher--><g class="entity" data-qualified-name="Teacher" data-source-line="8" id="ent0002"><ellipse cx="34.3418" cy="619.6469" fill="#F1F1F1" rx="8" ry="8" style="stroke:#181818;stroke-width:0.5;"/><path d="M34.3418,627.6469 L34.3418,654.6469 M21.3418,635.6469 L47.3418,635.6469 M34.3418,654.6469 L21.3418,669.6469 M34.3418,654.6469 L47.3418,669.6469" fill="none" style="stroke:#181818;stroke-width:0.5;"/><text fill="#000000" font-family="sans-serif" font-size="14" lengthAdjust="spacing" textLength="56.6836" x="6" y="684.142">Teacher</text></g><!--entity Admin--><g class="entity" data-qualified-name="Admin" data-source-line="9" id="ent0003"><ellipse cx="34.3421" cy="891.6469" fill="#F1F1F1" rx="8" ry="8" style="stroke:#181818;stroke-width:0.5;"/><path d="M34.3421,899.6469 L34.3421,926.6469 M21.3421,907.6469 L47.3421,907.6469 M34.3421,926.6469 L21.3421,941.6469 M34.3421,926.6469 L47.3421,941.6469" fill="none" style="stroke:#181818;stroke-width:0.5;"/><text fill="#000000" font-family="sans-serif" font-size="14" lengthAdjust="spacing" textLength="44.8643" x="11.91" y="956.142">Admin</text></g><!--link Student to UC1--><g class="link" data-entity-1="ent0001" data-entity-2="ent0005" data-link-type="dependency" data-source-line="28" id="lnk19"><path d="M38.28,289.6869 C44.58,361.2369 61.91,510.8469 98.68,545.2969 C141.56,585.4669 206.7142,589.1039 255.3842,585.4239" fill="none" id="Student-to-UC1" style="stroke:#181818;stroke-width:1;"/><polygon fill="#181818" points="260.37,585.0469,251.094,581.7368,255.3842,585.4239,251.6972,589.7141,260.37,585.0469" style="stroke:#181818;stroke-width:1;stroke-linejoin:miter;stroke-miterlimit:10;"/></g><!--link Student to UC6--><g class="link" data-entity-1="ent0001" data-entity-2="ent0010" data-link-type="dependency" data-source-line="29" id="lnk20"><path d="M36.74,289.8169 C40.58,373.0169 54.19,565.6269 98.68,610.2969 C129.94,641.6869 172.3691,652.3046 214.8091,654.8746" fill="none" id="Student-to-UC6" style="stroke:#181818;stroke-width:1;"/><polygon fill="#181818" points="219.8,655.1769,211.0582,650.6402,214.8091,654.8746,210.5747,658.6256,219.8,655.1769" style="stroke:#181818;stroke-width:1;stroke-linejoin:miter;stroke-miterlimit:10;"/></g><!--link Student to UC7--><g class="link" data-entity-1="ent0001" data-entity-2="ent0011" data-link-type="dependency" data-source-line="30" id="lnk21"><path d="M62.38,251.2969 C97.64,251.2969 156.25,251.2969 210.77,251.2969" fill="none" id="Student-to-UC7" style="stroke:#181818;stroke-width:1;"/><polygon fill="#181818" points="215.77,251.2969,206.77,247.2969,210.77,251.2969,206.77,255.2969,215.77,251.2969" style="stroke:#181818;stroke-width:1;stroke-linejoin:miter;stroke-miterlimit:10;"/></g><!--link Student to UC11--><g class="link" data-entity-1="ent0001" data-entity-2="ent0015" data-link-type="dependency" data-source-line="31" id="lnk22"><path d="M62.18,231.1569 C73.03,223.8969 85.97,216.2769 98.68,211.2969 C138.01,195.8969 178.7954,187.0793 218.0254,181.1893" fill="none" id="Student-to-UC11" style="stroke:#181818;stroke-width:1;"/><polygon fill="#181818" points="222.97,180.4469,213.4759,177.8275,218.0254,181.1893,214.6637,185.7388,222.97,180.4469" style="stroke:#181818;stroke-width:1;stroke-linejoin:miter;stroke-miterlimit:10;"/></g><!--link Student to UC14--><g class="link" data-entity-1="ent0001" data-entity-2="ent0018" data-link-type="dependency" data-source-line="32" id="lnk23"><path d="M45.67,212.7069 C55,185.5969 71.51,150.8069 98.68,131.2969 C140.03,101.5969 192.2714,93.5253 237.4414,92.4553" fill="none" id="Student-to-UC14" style="stroke:#181818;stroke-width:1;"/><polygon fill="#181818" points="242.44,92.3369,233.3478,88.5511,237.4414,92.4553,233.5373,96.5489,242.44,92.3369" style="stroke:#181818;stroke-width:1;stroke-linejoin:miter;stroke-miterlimit:10;"/></g><!--link Teacher to UC1--><g class="link" data-entity-1="ent0002" data-entity-2="ent0005" data-link-type="dependency" data-source-line="34" id="lnk24"><path d="M63.03,628.2969 C73.66,621.1969 86.25,613.9069 98.68,609.2969 C148.44,590.8369 203.394,583.3711 247.494,580.0611" fill="none" id="Teacher-to-UC1" style="stroke:#181818;stroke-width:1;"/><polygon fill="#181818" points="252.48,579.6869,243.2059,576.3717,247.494,580.0611,243.8046,584.3493,252.48,579.6869" style="stroke:#181818;stroke-width:1;stroke-linejoin:miter;stroke-miterlimit:10;"/></g><!--link Teacher to UC3--><g class="link" data-entity-1="ent0002" data-entity-2="ent0007" data-link-type="dependency" data-source-line="35" id="lnk25"><path d="M39.91,687.6469 C50.43,773.1269 77.13,973.5069 98.68,995.2969 C134.41,1031.4169 186.3217,1041.2177 232.7517,1042.4177" fill="none" id="Teacher-to-UC3" style="stroke:#181818;stroke-width:1;"/><polygon fill="#181818" points="237.75,1042.5469,228.8564,1038.3157,232.7517,1042.4177,228.6497,1046.313,237.75,1042.5469" style="stroke:#181818;stroke-width:1;stroke-linejoin:miter;stroke-miterlimit:10;"/></g><!--link Teacher to UC4--><g class="link" data-entity-1="ent0002" data-entity-2="ent0008" data-link-type="dependency" data-source-line="36" id="lnk26"><path d="M44.62,687.9369 C53.58,716.6069 70.1,754.2369 98.68,775.2969 C137.63,803.9969 186.2344,812.846 230.2944,814.706" fill="none" id="Teacher-to-UC4" style="stroke:#181818;stroke-width:1;"/><polygon fill="#181818" points="235.29,814.9169,226.4667,810.5408,230.2944,814.706,226.1293,818.5337,235.29,814.9169" style="stroke:#181818;stroke-width:1;stroke-linejoin:miter;stroke-miterlimit:10;"/></g><!--link Teacher to UC5--><g class="link" data-entity-1="ent0002" data-entity-2="ent0009" data-link-type="dependency" data-source-line="37" id="lnk27"><path d="M49.2,610.8469 C59.41,588.0169 75.56,560.4569 98.68,544.2969 C130.31,522.1969 165.653,511.723 202.853,506.263" fill="none" id="Teacher-to-UC5" style="stroke:#181818;stroke-width:1;"/><polygon fill="#181818" points="207.8,505.5369,198.3145,502.8862,202.853,506.263,199.4763,510.8014,207.8,505.5369" style="stroke:#181818;stroke-width:1;stroke-linejoin:miter;stroke-miterlimit:10;"/></g><!--link Teacher to UC6--><g class="link" data-entity-1="ent0002" data-entity-2="ent0010" data-link-type="dependency" data-source-line="38" id="lnk28"><path d="M63.15,649.2969 C98.68,649.2969 157.1,649.2969 211.36,649.2969" fill="none" id="Teacher-to-UC6" style="stroke:#181818;stroke-width:1;"/><polygon fill="#181818" points="216.36,649.2969,207.36,645.2969,211.36,649.2969,207.36,653.2969,216.36,649.2969" style="stroke:#181818;stroke-width:1;stroke-linejoin:miter;stroke-miterlimit:10;"/></g><!--link Teacher to UC7--><g class="link" data-entity-1="ent0002" data-entity-2="ent0011" data-link-type="dependency" data-source-line="39" id="lnk29"><path d="M36.77,610.8969 C40.68,527.9569 54.4,335.9369 98.68,291.2969 C129.64,260.0969 171.5118,249.2199 213.6818,246.3199" fill="none" id="Teacher-to-UC7" style="stroke:#181818;stroke-width:1;"/><polygon fill="#181818" points="218.67,245.9769,209.4168,242.6038,213.6818,246.3199,209.9656,250.5849,218.67,245.9769" style="stroke:#181818;stroke-width:1;stroke-linejoin:miter;stroke-miterlimit:10;"/></g><!--link Teacher to UC8--><g class="link" data-entity-1="ent0002" data-entity-2="ent0012" data-link-type="dependency" data-source-line="40" id="lnk30"><path d="M39.12,687.9169 C46.51,755.1769 65.16,889.7069 98.68,921.2969 C133.78,954.3769 182.0714,963.6499 226.9414,964.6999" fill="none" id="Teacher-to-UC8" style="stroke:#181818;stroke-width:1;"/><polygon fill="#181818" points="231.94,964.8169,223.036,960.6074,226.9414,964.6999,222.8489,968.6052,231.94,964.8169" style="stroke:#181818;stroke-width:1;stroke-linejoin:miter;stroke-miterlimit:10;"/></g><!--link Teacher to UC9--><g class="link" data-entity-1="ent0002" data-entity-2="ent0013" data-link-type="dependency" data-source-line="41" id="lnk31"><path d="M37.13,610.6569 C41.31,567.2069 54.92,497.7269 98.68,459.2969 C137.22,425.4569 189.7437,415.748 235.7437,413.988" fill="none" id="Teacher-to-UC9" style="stroke:#181818;stroke-width:1;"/><polygon fill="#181818" points="240.74,413.7969,231.5936,410.1439,235.7437,413.988,231.8995,418.138,240.74,413.7969" style="stroke:#181818;stroke-width:1;stroke-linejoin:miter;stroke-miterlimit:10;"/></g><!--link Teacher to UC10--><g class="link" data-entity-1="ent0002" data-entity-2="ent0014" data-link-type="dependency" data-source-line="42" id="lnk32"><path d="M39.12,610.7469 C46.54,543.1969 65.27,407.5569 98.68,375.2969 C132.69,342.4569 179.308,331.839 223.548,329.339" fill="none" id="Teacher-to-UC10" style="stroke:#181818;stroke-width:1;"/><polygon fill="#181818" points="228.54,329.0569,219.3287,325.571,223.548,329.339,219.78,333.5583,228.54,329.0569" style="stroke:#181818;stroke-width:1;stroke-linejoin:miter;stroke-miterlimit:10;"/></g><!--link Teacher to UC12--><g class="link" data-entity-1="ent0002" data-entity-2="ent0016" data-link-type="dependency" data-source-line="43" id="lnk33"><path d="M63.15,669.9669 C73.8,677.0269 86.36,684.3769 98.68,689.2969 C143.69,707.2669 192.1332,717.2595 234.5732,723.4995" fill="none" id="Teacher-to-UC12" style="stroke:#181818;stroke-width:1;"/><polygon fill="#181818" points="239.52,724.2269,231.1976,718.9602,234.5732,723.4995,230.0339,726.8751,239.52,724.2269" style="stroke:#181818;stroke-width:1;stroke-linejoin:miter;stroke-miterlimit:10;"/></g><!--link Teacher to UC13--><g class="link" data-entity-1="ent0002" data-entity-2="ent0017" data-link-type="dependency" data-source-line="44" id="lnk34"><path d="M36.3,687.6969 C39.64,732.9469 52.37,807.0569 98.68,847.2969 C135.51,879.3069 184.6519,888.3899 229.5219,889.6199" fill="none" id="Teacher-to-UC13" style="stroke:#181818;stroke-width:1;"/><polygon fill="#181818" points="234.52,889.7569,225.633,885.5118,229.5219,889.6199,225.4138,893.5088,234.52,889.7569" style="stroke:#181818;stroke-width:1;stroke-linejoin:miter;stroke-miterlimit:10;"/></g><!--link Admin to UC1--><g class="link" data-entity-1="ent0003" data-entity-2="ent0005" data-link-type="dependency" data-source-line="46" id="lnk35"><path d="M40.65,882.8069 C51.93,803.5769 78.88,628.0769 98.68,609.2969 C141.32,568.8669 206.5248,565.2824 255.2748,569.0424" fill="none" id="Admin-to-UC1" style="stroke:#181818;stroke-width:1;"/><polygon fill="#181818" points="260.26,569.4269,251.5942,564.7466,255.2748,569.0424,250.9791,572.7229,260.26,569.4269" style="stroke:#181818;stroke-width:1;stroke-linejoin:miter;stroke-miterlimit:10;"/></g><!--link Admin to UC2--><g class="link" data-entity-1="ent0003" data-entity-2="ent0006" data-link-type="dependency" data-source-line="47" id="lnk36"><path d="M40.2,959.6069 C46.9,995.9969 62.58,1049.4569 98.68,1079.2969 C134.09,1108.5669 178.9064,1119.2023 221.7764,1122.6823" fill="none" id="Admin-to-UC2" style="stroke:#181818;stroke-width:1;"/><polygon fill="#181818" points="226.76,1123.0869,218.1131,1118.3718,221.7764,1122.6823,217.4659,1126.3456,226.76,1123.0869" style="stroke:#181818;stroke-width:1;stroke-linejoin:miter;stroke-miterlimit:10;"/></g><!--link Admin to UC3--><g class="link" data-entity-1="ent0003" data-entity-2="ent0007" data-link-type="dependency" data-source-line="48" id="lnk37"><path d="M57.1,955.7669 C67.89,970.1369 82.17,985.6769 98.68,995.2969 C140.28,1019.5269 188.2767,1029.5608 231.3567,1034.0308" fill="none" id="Admin-to-UC3" style="stroke:#181818;stroke-width:1;"/><polygon fill="#181818" points="236.33,1034.5469,227.7909,1029.6394,231.3567,1034.0308,226.9652,1037.5967,236.33,1034.5469" style="stroke:#181818;stroke-width:1;stroke-linejoin:miter;stroke-miterlimit:10;"/></g><!--link Admin to UC6--><g class="link" data-entity-1="ent0003" data-entity-2="ent0010" data-link-type="dependency" data-source-line="49" id="lnk38"><path d="M40.85,882.7369 C50.06,823.7769 70.41,715.3069 98.68,689.2969 C130.47,660.0569 171.4267,649.2655 212.7667,645.8755" fill="none" id="Admin-to-UC6" style="stroke:#181818;stroke-width:1;"/><polygon fill="#181818" points="217.75,645.4669,208.4532,642.2158,212.7667,645.8755,209.107,650.1891,217.75,645.4669" style="stroke:#181818;stroke-width:1;stroke-linejoin:miter;stroke-miterlimit:10;"/></g><!--link Admin to UC8--><g class="link" data-entity-1="ent0003" data-entity-2="ent0012" data-link-type="dependency" data-source-line="50" id="lnk39"><path d="M57.26,924.1969 C95.91,929.3169 172.9132,939.5207 234.0232,947.6107" fill="none" id="Admin-to-UC8" style="stroke:#181818;stroke-width:1;"/><polygon fill="#181818" points="238.98,948.2669,230.5828,943.1203,234.0232,947.6107,229.5329,951.0511,238.98,948.2669" style="stroke:#181818;stroke-width:1;stroke-linejoin:miter;stroke-miterlimit:10;"/></g><!--link Admin to UC13--><g class="link" data-entity-1="ent0003" data-entity-2="ent0017" data-link-type="dependency" data-source-line="51" id="lnk40"><path d="M57.26,918.3969 C96.55,913.1869 175.6533,902.7132 237.0533,894.5832" fill="none" id="Admin-to-UC13" style="stroke:#181818;stroke-width:1;"/><polygon fill="#181818" points="242.01,893.9269,232.5628,891.1429,237.0533,894.5832,233.6129,899.0736,242.01,893.9269" style="stroke:#181818;stroke-width:1;stroke-linejoin:miter;stroke-miterlimit:10;"/></g><?plantuml-src RLF1Rk8m4BtxAqOSzbIqXL2WbvMYe5QLMecbsptbOfmXM4tiQ3nfIrVxx-lGX4qCbqZFVlFcpHk7DHS8Z_YXbJMmBYJlB9KmXXU7a4Z_MMcPaoo5A737m1P8vtk6J1CgrjO8zwfD9Jq5AgbUPOxFVF2QpRKqUO4zmjOJShAroH9RM08cQPo_GiD2ICN-w9dhh85Vw1TAjKTgKPoLsWXnKePHP_mH9HbjSeYDB0wibODl43_07MBMD3rDDe8_0g1sg9hPHd7DUzzDAyau0kdW9Pdqxv-ayGCrOP2xIarYQtBOQD_xAIhNbapx9HlCjMCa-0uFPMM9KzFErD6Z8LrPoY1cHfD9epeRimisOkURkxAHycP-rlhpysXcKs_9ZznMtlGhVsjyxpA5bNJxhPMKjSpv6JEnPONUYJh0asJI7orpSSOy1l0_xfQtxFFkqI3vOFqYKdFQn8haZblwxJ29jqROxwsgoBvXQdeBx9PpVMQaPMTdrCb5B-lLNMhMP7FoKS86cmrr5TCBcIT8h7V71z8DEOdESxl0cec_GdJHZyS_ZczhYES1NeJyiC2BYlQVE4aESHJWMO1l0ZmFy2B0om3VXlslmuDfU109SVnpJuxxQ3f0qG3D1sWvL8d4Fm00?></g></svg>